<?xml version="1.0" standalone="no"?><!DOCTYPE svg PUBLIC "-//W3C//DTD SVG 1.1//EN" "http://www.w3.org/Graphics/SVG/1.1/DTD/svg11.dtd"><svg t="1602076962682" class="icon" viewBox="0 0 1024 1024" version="1.1" xmlns="http://www.w3.org/2000/svg" p-id="2332" xmlns:xlink="http://www.w3.org/1999/xlink" width="200" height="200"><defs><style type="text/css"></style></defs><path d="M532.649467 480.982744m-385.778197 0a385.778196 385.778196 0 1 0 771.556393 0 385.778196 385.778196 0 1 0-771.556393 0Z" fill="#27BEC4" p-id="2333"></path><path d="M374.20485 570.538397h158.444617v-179.111306h-158.444617a89.555653 89.555653 0 0 0 0 179.111306z" fill="#FFFFFF" p-id="2334"></path><path d="M691.094083 570.538397a89.555653 89.555653 0 1 0 0-179.111306h-158.444616v179.111306z" fill="#FF642F" p-id="2335"></path><path d="M663.538498 542.982811h-316.889233a88.970097 88.970097 0 0 1-48.015608-13.984459 89.555653 89.555653 0 0 0 75.571193 41.540045h316.889233a89.555653 89.555653 0 0 0 48.015608-165.126846 89.555653 89.555653 0 0 1-75.571193 137.57126z" fill="#B5B5B6" p-id="2336"></path></svg>